# xmcd CD database file
#
# Track frame offsets:
#	150
#	11104
#	52482
#	84636
#	115309
#	158666
#	235022
#
# Disc length: 3928 seconds
#
# Revision: 0
# Processed by: cddbd v1.5.2PL0 Copyright (c) Steve Scherf et al.
# Submitted via: CDex 1.70beta2
#
DISCID=560f5607
DTITLE=Weltbild IMAGINE - Leben ohne Angst - Ein Leitfaden für eine neue Unbeschwertheit
DYEAR=2007
DGENRE=New Age
TTITLE0=1v7-Einleitung
TTITLE1=2v7-Zur Ruhe kommen
TTITLE2=3v7-Durch die Angst zu Mut und Stärke
TTITLE3=4v7-Leben ohne Angst
TTITLE4=5v7-Unbeschwert leben
TTITLE5=6v7-Ängste überwinden: Übungen für jeden Tag
TTITLE6=7v7-Erste Hilfe-Meditation
EXTD=YEAR: 2007
EXTT0=
EXTT1=
EXTT2=
EXTT3=
EXTT4=
EXTT5=
EXTT6=
PLAYORDER=
